<svg xmlns="http://www.w3.org/2000/svg" viewBox="0 0 1200 900" role="img" aria-label="Abstract tools and supply illustration">
  <defs>
    <linearGradient id="g1" x1="0" x2="1" y1="0" y2="1">
      <stop offset="0%" stop-color="#ff9a2c"/>
      <stop offset="100%" stop-color="#ff5f00"/>
    </linearGradient>
    <linearGradient id="g2" x1="0" x2="1" y1="0" y2="1">
      <stop offset="0%" stop-color="#ffffff" stop-opacity=".95"/>
      <stop offset="100%" stop-color="#a9b4c6" stop-opacity=".3"/>
    </linearGradient>
  </defs>
  <rect width="1200" height="900" rx="52" fill="#08090c"/>
  <circle cx="940" cy="160" r="240" fill="url(#g1)" fill-opacity=".18"/>
  <circle cx="210" cy="760" r="180" fill="#ffffff" fill-opacity=".05"/>
  <rect x="150" y="190" width="420" height="26" rx="13" fill="url(#g1)" fill-opacity=".75"/>
  <rect x="150" y="228" width="250" height="18" rx="9" fill="#ffffff" fill-opacity=".14"/>
  <rect x="150" y="274" width="530" height="430" rx="34" fill="#111417" stroke="#ffffff" stroke-opacity=".12"/>
  <g transform="translate(225 340)">
    <circle cx="110" cy="110" r="108" fill="none" stroke="url(#g1)" stroke-width="20" stroke-dasharray="520 180"/>
    <circle cx="110" cy="110" r="62" fill="#0f1114" stroke="#ffffff" stroke-opacity=".14" stroke-width="8"/>
    <rect x="96" y="-22" width="28" height="84" rx="14" fill="url(#g2)"/>
    <rect x="96" y="158" width="28" height="84" rx="14" fill="url(#g2)"/>
    <rect x="-22" y="96" width="84" height="28" rx="14" fill="url(#g2)"/>
    <rect x="158" y="96" width="84" height="28" rx="14" fill="url(#g2)"/>
    <circle cx="110" cy="110" r="20" fill="url(#g1)"/>
  </g>
  <g transform="translate(675 205)">
    <rect width="350" height="130" rx="28" fill="#111417" stroke="#ffffff" stroke-opacity=".12"/>
    <rect x="24" y="28" width="200" height="18" rx="9" fill="#ffffff" fill-opacity=".2"/>
    <rect x="24" y="58" width="250" height="14" rx="7" fill="#ffffff" fill-opacity=".12"/>
    <rect x="24" y="82" width="160" height="14" rx="7" fill="#ffffff" fill-opacity=".12"/>
    <circle cx="300" cy="64" r="28" fill="url(#g1)" fill-opacity=".85"/>
  </g>
  <g transform="translate(700 390)">
    <rect width="310" height="240" rx="28" fill="#111417" stroke="#ffffff" stroke-opacity=".12"/>
    <rect x="30" y="30" width="250" height="22" rx="11" fill="url(#g1)" fill-opacity=".8"/>
    <rect x="30" y="72" width="210" height="14" rx="7" fill="#ffffff" fill-opacity=".14"/>
    <rect x="30" y="98" width="270" height="14" rx="7" fill="#ffffff" fill-opacity=".1"/>
    <rect x="30" y="124" width="190" height="14" rx="7" fill="#ffffff" fill-opacity=".1"/>
    <rect x="30" y="160" width="120" height="36" rx="18" fill="url(#g1)"/>
  </g>
</svg>