<svg xmlns="http://www.w3.org/2000/svg" viewBox="0 0 1200 900" role="img" aria-label="Abstract contact network illustration">
  <defs>
    <linearGradient id="g1" x1="0" x2="1" y1="0" y2="1">
      <stop offset="0%" stop-color="#ff9a2c"/>
      <stop offset="100%" stop-color="#ff7a00"/>
    </linearGradient>
  </defs>
  <rect width="1200" height="900" rx="52" fill="#08090c"/>
  <circle cx="600" cy="420" r="180" fill="url(#g1)" fill-opacity=".13"/>
  <g stroke="#ffffff" stroke-opacity=".16" stroke-width="10" stroke-linecap="round">
    <path d="M600 420 350 240"/>
    <path d="M600 420 870 250"/>
    <path d="M600 420 330 650"/>
    <path d="M600 420 860 650"/>
  </g>
  <g>
    <circle cx="600" cy="420" r="62" fill="url(#g1)"/>
    <circle cx="350" cy="240" r="46" fill="#111417" stroke="#ffffff" stroke-opacity=".12" stroke-width="4"/>
    <circle cx="870" cy="250" r="46" fill="#111417" stroke="#ffffff" stroke-opacity=".12" stroke-width="4"/>
    <circle cx="330" cy="650" r="46" fill="#111417" stroke="#ffffff" stroke-opacity=".12" stroke-width="4"/>
    <circle cx="860" cy="650" r="46" fill="#111417" stroke="#ffffff" stroke-opacity=".12" stroke-width="4"/>
  </g>
  <g fill="#111417" stroke="#ffffff" stroke-opacity=".12" stroke-width="4">
    <rect x="150" y="120" width="230" height="120" rx="28"/>
    <rect x="820" y="120" width="230" height="120" rx="28"/>
    <rect x="150" y="700" width="230" height="120" rx="28"/>
    <rect x="820" y="700" width="230" height="120" rx="28"/>
  </g>
  <g>
    <rect x="180" y="155" width="150" height="18" rx="9" fill="#ffffff" fill-opacity=".18"/>
    <rect x="850" y="155" width="150" height="18" rx="9" fill="#ffffff" fill-opacity=".18"/>
    <rect x="180" y="735" width="150" height="18" rx="9" fill="#ffffff" fill-opacity=".18"/>
    <rect x="850" y="735" width="150" height="18" rx="9" fill="#ffffff" fill-opacity=".18"/>
  </g>
</svg>