<svg xmlns="http://www.w3.org/2000/svg" viewBox="0 0 1200 900" role="img" aria-label="Abstract delivery route and experience illustration">
  <defs>
    <linearGradient id="g1" x1="0" x2="1" y1="0" y2="1">
      <stop offset="0%" stop-color="#ff9a2c"/>
      <stop offset="100%" stop-color="#ff7a00"/>
    </linearGradient>
  </defs>
  <rect width="1200" height="900" rx="52" fill="#08090c"/>
  <path d="M120 650C240 520 250 520 360 520s120 100 220 100 120-90 220-90 130 70 260-10" fill="none" stroke="url(#g1)" stroke-width="18" stroke-linecap="round" stroke-dasharray="18 18"/>
  <circle cx="120" cy="650" r="18" fill="url(#g1)"/>
  <circle cx="360" cy="520" r="18" fill="#ffffff" fill-opacity=".9"/>
  <circle cx="580" cy="620" r="18" fill="#ffffff" fill-opacity=".9"/>
  <circle cx="800" cy="530" r="18" fill="#ffffff" fill-opacity=".9"/>
  <circle cx="1060" cy="520" r="18" fill="url(#g1)"/>
  <g fill="#111417" stroke="#ffffff" stroke-opacity=".12" stroke-width="4">
    <rect x="150" y="170" width="240" height="140" rx="28"/>
    <rect x="490" y="110" width="260" height="180" rx="28"/>
    <rect x="820" y="170" width="230" height="140" rx="28"/>
  </g>
  <g>
    <rect x="190" y="208" width="160" height="18" rx="9" fill="#ffffff" fill-opacity=".18"/>
    <rect x="530" y="150" width="180" height="18" rx="9" fill="#ffffff" fill-opacity=".18"/>
    <rect x="860" y="208" width="120" height="18" rx="9" fill="#ffffff" fill-opacity=".18"/>
    <circle cx="620" cy="215" r="36" fill="url(#g1)" fill-opacity=".85"/>
  </g>
  <g transform="translate(150 360)">
    <rect width="900" height="90" rx="24" fill="#111417" stroke="#ffffff" stroke-opacity=".12"/>
    <rect x="26" y="26" width="230" height="16" rx="8" fill="url(#g1)" fill-opacity=".85"/>
    <rect x="270" y="26" width="540" height="16" rx="8" fill="#ffffff" fill-opacity=".12"/>
  </g>
</svg>